<?xml version="1.0" encoding="UTF-8" standalone="no"?>
<!-- Created with Inkscape (http://www.inkscape.org/) -->

<svg
   xmlns:dc="http://purl.org/dc/elements/1.1/"
   xmlns:cc="http://creativecommons.org/ns#"
   xmlns:rdf="http://www.w3.org/1999/02/22-rdf-syntax-ns#"
   xmlns:svg="http://www.w3.org/2000/svg"
   xmlns="http://www.w3.org/2000/svg"
   xmlns:sodipodi="http://sodipodi.sourceforge.net/DTD/sodipodi-0.dtd"
   xmlns:inkscape="http://www.inkscape.org/namespaces/inkscape"
   width="210mm"
   height="297mm"
   viewBox="0 0 744.09448819 1052.3622047"
   id="svg2"
   version="1.1"
   inkscape:version="0.91 r13725"
   sodipodi:docname="flosspa.svg">
  <defs
     id="defs4" />
  <sodipodi:namedview
     id="base"
     pagecolor="#ffffff"
     bordercolor="#666666"
     borderopacity="1.0"
     inkscape:pageopacity="0.0"
     inkscape:pageshadow="2"
     inkscape:zoom="0.48037243"
     inkscape:cx="381.42665"
     inkscape:cy="466.2898"
     inkscape:document-units="px"
     inkscape:current-layer="layer1"
     showgrid="false"
     inkscape:window-width="1440"
     inkscape:window-height="805"
     inkscape:window-x="16"
     inkscape:window-y="0"
     inkscape:window-maximized="0"
     showguides="false" />
  <metadata
     id="metadata7">
    <rdf:RDF>
      <cc:Work
         rdf:about="">
        <dc:format>image/svg+xml</dc:format>
        <dc:type
           rdf:resource="http://purl.org/dc/dcmitype/StillImage" />
        <dc:title />
      </cc:Work>
    </rdf:RDF>
  </metadata>
  <g
     inkscape:label="Layer 1"
     inkscape:groupmode="layer"
     id="layer1">
    <path
       style="fill:#333333;fill-rule:evenodd;stroke:none;stroke-width:1px;stroke-linecap:butt;stroke-linejoin:miter;stroke-opacity:1"
       d="m 109.37378,352.60676 c 0,0 -49.263562,-21.61208 -75.331762,-27.56128 -33.85746018,-7.72683 -87.56128,-48.153 -87.56128,-48.153 0,0 -3.16806,16.2056 -2.77049,24.37237 0.43658,8.96816 2.18945,18.36842 5.62763,26.34191 3.43818,7.97349 8.04849,15.08371 14.28571,20.71429 6.23722,5.63058 14.36002,8.90881 22.14286,12.14286 7.7828398,3.23405 24.28572,7.14285 24.28572,7.14285 0.49835,7.07845 -10.13973018,5.71776 -15.7142902,7.14286 -6.2453298,1.59658 -12.8439298,1.19031 -19.2857098,1.42857 -5.23452,0.19361 -10.61632,1.20347 -15.71429,0 -3.10893,-0.73392 -8.57143,-4.28571 -8.57143,-4.28571 0,0 3.57355,12.49365 5.71429,16.78571 5.52159,13.5188 14.51324,14.33327 26.78571,20 6.07654,2.80807 10.0139798,4.22239 16.78571982,5.35714 6.77173998,1.13475 19.28571018,0 19.28571018,0 l 20.35715,-3.57142 c 0,0 -1.9554,5.48222 -3.92858,7.49999 -3.61372,3.69539 -8.8071,5.49601 -13.57143,7.50001 -4.58268,1.92759 -9.10737,4.10473 -13.7806302,5.80094 -3.40895,1.23732 -10.75762,3.02302 -10.75762,3.02302 -5.53555,0.96625 8.47952,7.62336 13.5714302,10 6.07327,2.8347 19.53825,4.74746 19.53825,4.74746 0,0 14.41993,1.37815 21.42857,0 5.55312,-1.09195 10.92852,-3.40765 15.71429,-6.42857 2.99311,-1.88934 7.85714,-7.14285 7.85714,-7.14285 0,0 -2.74197,8.85134 -5,12.85714 -1.91757,3.40181 -4.48124,6.42823 -7.14286,9.28571 -1.95413,2.09793 -3.86212,4.43628 -6.42857,5.71429 -3.26029,1.62351 -10.71428,2.14286 -10.71428,2.14286 0,0 10.87761,3.18286 16.42857,4.28571 6.83651,1.35826 13.74427,2.89834 20.71428,2.85714 4.8151,-0.0285 9.63825,-0.88311 14.28572,-2.14285 4.950102,-1.34177 14.285712,-5.71429 14.285712,-5.71429 0,0 7.84871,8.1685 8.57143,12.85714 0.6529,4.23569 1.40079,9.34106 0.71429,13.57143 -0.36182,2.2296 -7.14286,6.42857 -7.14286,6.42857 l 8.57143,19.28572 18.86729,-26.26269 12.14286,20.17331 10.41842,-19.62491 c -1.86294,-60.34693 13.10545,-121.21651 -54.9641,-138.57143 z"
       id="path4206"
       inkscape:connector-curvature="0"
       sodipodi:nodetypes="cscszzzcsssccczccssssscsscssscssscsscccccc"
       inkscape:export-xdpi="1499.9648"
       inkscape:export-ydpi="1499.9648" />
    <path
       style="fill:#666666;fill-opacity:1;fill-rule:evenodd;stroke:none;stroke-width:1px;stroke-linecap:butt;stroke-linejoin:miter;stroke-opacity:1"
       d="m 153.62359,584.03533 -1.42857,-107.85714 -55.714282,54.28572 c -29.0857,19.25397 -47.6446,21.88015 -80.35715,25.26785 17.74292,21.74517 47.6231,20.01933 67.14286,12.32143 -2.20569,12.32727 -15.52216,18.88042 -24.74748,26.02547 27.23359,9.2242 50.201162,-3.56636 62.321432,-17.41072 1.067,22.84521 -2.44352,27.10848 -10.69899,37.01025 23.30866,0.003 34.09458,-11.19228 43.48218,-29.64286 z"
       id="path4553"
       inkscape:connector-curvature="0"
       sodipodi:nodetypes="ccccccccc"
       inkscape:export-xdpi="1499.9648"
       inkscape:export-ydpi="1499.9648" />
    <path
       sodipodi:nodetypes="cscszzzcsssccczccssssscsscssscssscsscccccc"
       inkscape:connector-curvature="0"
       id="path4228"
       d="m 197.34521,352.10169 c 0,0 49.26356,-21.61208 75.33176,-27.56128 33.85746,-7.72683 87.56128,-48.153 87.56128,-48.153 0,0 3.16806,16.2056 2.77049,24.37237 -0.43658,8.96816 -2.18945,18.36842 -5.62763,26.34191 -3.43818,7.97349 -8.04849,15.08371 -14.28571,20.71429 -6.23722,5.63058 -14.36002,8.90881 -22.14286,12.14286 -7.78284,3.23405 -24.28572,7.14285 -24.28572,7.14285 -0.49835,7.07845 10.13973,5.71776 15.71429,7.14286 6.24533,1.59658 12.84393,1.19031 19.28571,1.42857 5.23452,0.19361 10.61632,1.20347 15.71429,0 3.10893,-0.73392 8.57143,-4.28571 8.57143,-4.28571 0,0 -3.57355,12.49365 -5.71429,16.78571 -5.52159,13.5188 -14.51324,14.33327 -26.78571,20 -6.07654,2.80807 -10.01398,4.22239 -16.78572,5.35714 -6.77174,1.13475 -19.28571,0 -19.28571,0 l -20.35715,-3.57142 c 0,0 1.9554,5.48222 3.92858,7.49999 3.61372,3.69539 8.8071,5.49601 13.57143,7.50001 4.58268,1.92759 9.10737,4.10473 13.78063,5.80094 3.40895,1.23732 10.75762,3.02302 10.75762,3.02302 5.53555,0.96625 -8.47952,7.62336 -13.57143,10 -6.07327,2.8347 -19.53825,4.74746 -19.53825,4.74746 0,0 -14.41993,1.37815 -21.42857,0 -5.55312,-1.09195 -10.92852,-3.40765 -15.71429,-6.42857 -2.99311,-1.88934 -7.85714,-7.14285 -7.85714,-7.14285 0,0 2.74197,8.85134 5,12.85714 1.91757,3.40181 4.48124,6.42823 7.14286,9.28571 1.95413,2.09793 3.86212,4.43628 6.42857,5.71429 3.26029,1.62351 10.71428,2.14286 10.71428,2.14286 0,0 -10.87761,3.18286 -16.42857,4.28571 -6.83651,1.35826 -13.74427,2.89834 -20.71428,2.85714 -4.8151,-0.0285 -9.63825,-0.88311 -14.28572,-2.14285 -4.9501,-1.34177 -14.28571,-5.71429 -14.28571,-5.71429 0,0 -13.563,6.02565 -14.28572,10.71429 -0.6529,4.23569 4.3135,11.48391 5,15.71428 0.36182,2.2296 6.36946,7.05992 6.36946,7.05992 l -7.79803,18.65437 -18.86729,-26.26269 -12.14286,20.17331 -10.41842,-19.62491 c 1.86294,-60.34693 -13.10545,-121.21651 54.9641,-138.57143 z"
       style="fill:#333333;fill-rule:evenodd;stroke:none;stroke-width:1px;stroke-linecap:butt;stroke-linejoin:miter;stroke-opacity:1"
       inkscape:export-xdpi="1499.9648"
       inkscape:export-ydpi="1499.9648" />
    <path
       sodipodi:nodetypes="ccccccccc"
       inkscape:connector-curvature="0"
       id="path4555"
       d="m 151.13374,584.03533 1.42857,-107.85714 55.71428,54.28572 c 29.0857,19.25397 47.6446,21.88015 80.35715,25.26785 -17.74292,21.74517 -47.6231,20.01933 -67.14286,12.32143 2.20569,12.32727 15.52216,18.88042 24.74748,26.02547 -27.23359,9.2242 -50.20116,-3.56636 -62.32143,-17.41072 -1.067,22.84521 2.44352,27.10848 10.69899,37.01025 -23.30866,0.003 -34.09458,-11.19228 -43.48218,-29.64286 z"
       style="fill:#666666;fill-opacity:1;fill-rule:evenodd;stroke:none;stroke-width:1px;stroke-linecap:butt;stroke-linejoin:miter;stroke-opacity:1"
       inkscape:export-xdpi="1499.9648"
       inkscape:export-ydpi="1499.9648" />
    <path
       sodipodi:nodetypes="ccccscssssccc"
       inkscape:connector-curvature="0"
       id="path4365"
       d="m 151.94713,511.89415 12.12183,-21.12655 17.67767,26.26397 10.6066,-18.18275 c 0,0 -4.18109,-7.47461 -4.54569,-11.61675 -0.37637,-4.27579 2.52538,-12.62691 2.52538,-12.62691 0,0 5.80879,-17.81934 8.58631,-26.76904 2.60494,-8.39366 5.22586,-16.78532 7.57613,-25.25381 2.18397,-7.86927 6.17348,-15.57266 6.06092,-23.73859 -0.12376,-8.97825 -2.49004,-18.37613 -7.38073,-25.90643 L 190.838,350.86147 152.4522,352.3767 Z"
       style="fill:#ececec;fill-rule:evenodd;stroke:none;stroke-width:1px;stroke-linecap:butt;stroke-linejoin:miter;stroke-opacity:1"
       inkscape:export-xdpi="1499.9648"
       inkscape:export-ydpi="1499.9648" />
    <path
       style="fill:#ececec;fill-rule:evenodd;stroke:none;stroke-width:1px;stroke-linecap:butt;stroke-linejoin:miter;stroke-opacity:1"
       d="m 152.99024,512.6951 -12.12183,-19.69798 -17.67767,26.26397 -10.6066,-18.18275 c 0,0 4.18109,-7.47461 4.54569,-11.61675 0.37637,-4.27579 -2.52538,-12.62691 -2.52538,-12.62691 0,0 -5.80879,-17.81934 -8.58631,-26.76904 -2.60494,-8.39366 -5.22586,-16.78532 -7.576132,-25.25381 -2.18397,-7.86927 -6.17348,-15.57266 -6.06092,-23.73859 0.12376,-8.97825 2.49004,-18.37613 7.38073,-25.90643 l 14.337552,-22.07582 39.27866,1.51523 z"
       id="path4367"
       inkscape:connector-curvature="0"
       sodipodi:nodetypes="ccccscssssccc"
       inkscape:export-xdpi="1499.9648"
       inkscape:export-ydpi="1499.9648" />
    <path
       style="fill:#666666;fill-rule:evenodd;stroke:none;stroke-width:1px;stroke-linecap:butt;stroke-linejoin:miter;stroke-opacity:1"
       d="m 153.37639,308.76135 0,-60.01173 -9.71064,13.59489 1.94212,12.04118 -13.01224,-8.93378 -2.52477,17.67336 -4.85532,-8.73958 -13.98332,-4.07846 3.30162,16.89651 7.5743,6.02059 -13.01226,-0.19421 7.18588,14.76016 z"
       id="path4394"
       inkscape:connector-curvature="0"
       inkscape:export-xdpi="1499.9648"
       inkscape:export-ydpi="1499.9648" />
    <path
       inkscape:connector-curvature="0"
       id="path4396"
       d="m 153.17588,308.76135 0,-60.01173 9.71063,13.59489 -1.94212,12.04118 13.01224,-8.93378 2.52477,17.67336 4.85532,-8.73958 13.98332,-4.07846 -3.30162,16.89651 -7.5743,6.02059 13.01226,-0.19421 -7.18588,14.76016 z"
       style="fill:#666666;fill-rule:evenodd;stroke:none;stroke-width:1px;stroke-linecap:butt;stroke-linejoin:miter;stroke-opacity:1"
       inkscape:export-xdpi="1499.9648"
       inkscape:export-ydpi="1499.9648" />
    <path
       sodipodi:nodetypes="ccscccc"
       inkscape:connector-curvature="0"
       id="path4449"
       d="m 191.62715,351.77112 10.14693,15.9099 c 0,0 -14.81369,1.8882 -18.99296,7.07107 -7.19383,8.92135 -18.21243,11.11168 -18.21243,11.11168 l -11.44781,14.71156 0,-35.67223 z"
       style="fill:#4d4d4d;fill-opacity:1;fill-rule:evenodd;stroke:none;stroke-width:1px;stroke-linecap:butt;stroke-linejoin:miter;stroke-opacity:1"
       inkscape:export-xdpi="1499.9648"
       inkscape:export-ydpi="1499.9648" />
    <path
       sodipodi:nodetypes="cccccccccccccccc"
       style="fill:#cccccc;fill-opacity:1;fill-rule:evenodd;stroke:none;stroke-width:1px;stroke-linecap:butt;stroke-linejoin:miter;stroke-opacity:1"
       d="m 152.82031,279.71988 8.35804,9.9853 6.2148,-6.1177 3.20451,10.00195 9.61354,-1.55371 -0.67975,7.5743 5.34085,7.76851 5.92349,0.19421 5.04953,4.27268 4.6611,22.52868 -5.82638,14.95438 -5.82639,8.64246 -14.27463,8.35116 -12.91515,2.03923 -9.17999,0.0971 z"
       id="path4373"
       inkscape:connector-curvature="0"
       inkscape:export-xdpi="1499.9648"
       inkscape:export-ydpi="1499.9648" />
    <path
       style="fill:#4d4d4d;fill-opacity:1;fill-rule:evenodd;stroke:none;stroke-width:1px;stroke-linecap:butt;stroke-linejoin:miter;stroke-opacity:1"
       d="m 114.75393,351.07069 -10.14693,15.9099 c 0,0 14.81369,1.8882 18.99296,7.07107 7.19383,8.92135 18.21243,11.11168 18.21243,11.11168 l 11.44781,15.42585 0,-36.38652 z"
       id="path4445"
       inkscape:connector-curvature="0"
       sodipodi:nodetypes="ccscccc"
       inkscape:export-xdpi="1499.9648"
       inkscape:export-ydpi="1499.9648" />
    <path
       inkscape:connector-curvature="0"
       id="path4371"
       d="m 153.02899,279.74321 -8.35804,9.9853 -6.2148,-6.11771 -3.20451,10.00196 -9.61354,-1.55371 0.67975,7.5743 -5.34085,7.76851 -5.92349,0.19421 -5.04953,4.27268 -4.6611,22.52868 5.82638,14.95438 5.82639,8.64246 14.27463,8.35115 12.91515,2.03924 9.17998,0.0971 z"
       style="fill:#cccccc;fill-opacity:1;fill-rule:evenodd;stroke:none;stroke-width:1px;stroke-linecap:butt;stroke-linejoin:miter;stroke-opacity:1"
       sodipodi:nodetypes="cccccccccccccccc"
       inkscape:export-xdpi="1499.9648"
       inkscape:export-ydpi="1499.9648" />
    <path
       style="fill:#ffd42a;fill-opacity:1;fill-rule:evenodd;stroke:none;stroke-width:1px;stroke-linecap:butt;stroke-linejoin:miter;stroke-opacity:1"
       d="m 124.33788,554.92819 c 1.06182,0.27783 2.24091,-0.20715 3.21429,-0.71428 3.77004,-2.32519 2.42387,-8.53101 2.14285,-12.14286 -0.14939,-1.68643 -0.50858,-3.35116 -0.89285,-5 -0.63283,-2.71534 -1.52129,-5.36489 -2.32143,-8.03572 -1.70293,-6.06079 -3.76032,-12.35691 -6.25,-17.67857 -1.39176,-2.99358 -2.86271,-5.94972 -4.28572,-8.92857 -5.43956,-9.56251 -19.631412,-28.41654 -30.535712,-22.5 -2.81148,1.7531 -3.49526,3.3375 -4.46429,6.25 -0.44598,1.29983 -0.69682,3.63526 -0.53571,5 0.26085,4.96064 5.35714,9.64286 5.35714,9.64286 0,0 -2.55013,-1.67837 -3.92857,-2.32143 -0.97246,-0.45367 -1.99858,-0.796 -3.03571,-1.07143 -1.92961,-0.51244 -3.90095,-0.93633 -5.89286,-1.07143 -4.03368,-0.0671 -9.26985,-2.1e-4 -11.60714,2.5 -2.33729,2.50021 -1.72033,5.91841 -1.25,8.57143 0.30271,1.63028 1.05881,3.15254 1.78571,4.64286 0.45646,0.93586 1.07695,1.78242 1.60714,2.67857 0.42107,0.7117 1.25,2.14286 1.25,2.14286 0,0 -6.63151,0.17639 -9.82143,2.85714 -1.41434,1.22194 -2.69911,2.72872 -3.39285,4.46429 -1.00031,2.50254 -1.00971,5.34319 -0.89286,8.03571 -0.12024,5.25914 11.34803,13.50035 14.10714,12.85714 0.54787,-2.43353 0.45055,-5.05831 1.78572,-7.32143 3.90134,-5.43166 10.22093,-8.72023 16.25,-9.46428 10.29221,-0.39445 18.152832,4.96931 24.464282,11.25 5.54054,5.30661 9.72085,13.41511 17.14286,15.35714 z"
       id="path4460"
       inkscape:connector-curvature="0"
       sodipodi:nodetypes="sccscccccccssczcssccscccccs"
       inkscape:export-xdpi="1499.9648"
       inkscape:export-ydpi="1499.9648" />
    <path
       sodipodi:nodetypes="sccscccccccssczcssccscccccs"
       inkscape:connector-curvature="0"
       id="path4500"
       d="m 180.35781,554.92819 c -1.06182,0.27783 -2.24091,-0.20715 -3.21429,-0.71428 -3.77004,-2.32519 -2.42387,-8.53101 -2.14285,-12.14286 0.14939,-1.68643 0.50858,-3.35116 0.89285,-5 0.63283,-2.71534 1.52129,-5.36489 2.32143,-8.03572 1.70293,-6.06079 3.76032,-12.35691 6.25,-17.67857 1.39176,-2.99358 2.86271,-5.94972 4.28572,-8.92857 5.43956,-9.56251 19.63141,-28.41654 30.53571,-22.5 2.81148,1.7531 3.49526,3.3375 4.46429,6.25 0.44598,1.29983 0.69682,3.63526 0.53571,5 -0.26085,4.96064 -5.35714,9.64286 -5.35714,9.64286 0,0 2.55013,-1.67837 3.92857,-2.32143 0.97246,-0.45367 1.99858,-0.796 3.03571,-1.07143 1.92961,-0.51244 3.90095,-0.93633 5.89286,-1.07143 4.03368,-0.0671 9.26985,-2.1e-4 11.60714,2.5 2.33729,2.50021 1.72033,5.91841 1.25,8.57143 -0.30271,1.63028 -1.05881,3.15254 -1.78571,4.64286 -0.45646,0.93586 -1.07695,1.78242 -1.60714,2.67857 -0.42107,0.7117 -1.25,2.14286 -1.25,2.14286 0,0 6.63151,0.17639 9.82143,2.85714 1.41434,1.22194 2.69911,2.72872 3.39285,4.46429 1.00031,2.50254 1.00971,5.34319 0.89286,8.03571 0.12024,5.25914 -11.34803,13.50035 -14.10714,12.85714 -0.54787,-2.43353 -0.45055,-5.05831 -1.78572,-7.32143 -3.90134,-5.43166 -10.22093,-8.72023 -16.25,-9.46428 -10.29221,-0.39445 -18.15283,4.96931 -24.46428,11.25 -5.54054,5.30661 -9.72085,13.41511 -17.14286,15.35714 z"
       style="fill:#ffd42a;fill-opacity:1;fill-rule:evenodd;stroke:none;stroke-width:1px;stroke-linecap:butt;stroke-linejoin:miter;stroke-opacity:1"
       inkscape:export-xdpi="1499.9648"
       inkscape:export-ydpi="1499.9648" />
    <g
       transform="matrix(-1.348164,0,0,1.348164,1113.6513,-116.71975)"
       id="g4657"
       inkscape:export-xdpi="1499.9648"
       inkscape:export-ydpi="1499.9648">
      <path
         style="fill:#1a1a1a;fill-opacity:1;fill-rule:evenodd;stroke:none;stroke-width:1px;stroke-linecap:butt;stroke-linejoin:miter;stroke-opacity:1"
         d="m 684.27238,326.83522 11.5622,6.09184 c 7.54321,-1.38831 9.87306,0.83046 10.24126,-0.17911 0.56619,-1.55248 1.71374,-4.0448 -4.41939,-5.29604 -5.59338,-1.14112 -16.77478,-1.40534 -17.38407,-0.61669 z"
         id="path4659"
         inkscape:connector-curvature="0"
         sodipodi:nodetypes="ccssc" />
      <circle
         style="fill:#ffffff;fill-opacity:1;stroke:none;stroke-width:0.89415866;stroke-opacity:1"
         id="circle4661"
         cy="333.3074"
         cx="699.93079"
         r="6" />
      <ellipse
         cx="700.39948"
         cy="332.78619"
         id="ellipse4663"
         style="fill:#241c1c;fill-opacity:1;stroke:none;stroke-width:0.89415866;stroke-opacity:1"
         rx="5.5312834"
         ry="5.4787984" />
      <circle
         style="fill:#000000;fill-opacity:1;stroke:none;stroke-width:0.89415866;stroke-opacity:1"
         id="circle4665"
         cy="332.77719"
         cx="700.26849"
         r="4.3468437" />
    </g>
    <g
       id="g4693"
       transform="matrix(1.348164,0,0,1.348164,-807.40131,-116.71975)"
       inkscape:export-xdpi="1499.9648"
       inkscape:export-ydpi="1499.9648">
      <path
         sodipodi:nodetypes="ccssc"
         inkscape:connector-curvature="0"
         id="path4695"
         d="m 684.27238,326.83522 11.5622,6.09184 c 7.54321,-1.38831 9.87306,0.83046 10.24126,-0.17911 0.56619,-1.55248 1.71374,-4.0448 -4.41939,-5.29604 -5.59338,-1.14112 -16.77478,-1.40534 -17.38407,-0.61669 z"
         style="fill:#1a1a1a;fill-opacity:1;fill-rule:evenodd;stroke:none;stroke-width:1px;stroke-linecap:butt;stroke-linejoin:miter;stroke-opacity:1" />
      <circle
         r="6"
         cx="699.93079"
         cy="333.3074"
         id="circle4697"
         style="fill:#ffffff;fill-opacity:1;stroke:none;stroke-width:0.89415866;stroke-opacity:1" />
      <ellipse
         ry="5.4787984"
         rx="5.5312834"
         style="fill:#241c1c;fill-opacity:1;stroke:none;stroke-width:0.89415866;stroke-opacity:1"
         id="ellipse4699"
         cy="332.78619"
         cx="700.39948" />
      <circle
         r="4.3468437"
         cx="700.26849"
         cy="332.77719"
         id="circle4701"
         style="fill:#000000;fill-opacity:1;stroke:none;stroke-width:0.89415866;stroke-opacity:1" />
    </g>
    <path
       style="fill:#999999;fill-opacity:1;fill-rule:evenodd;stroke:none;stroke-width:1px;stroke-linecap:butt;stroke-linejoin:miter;stroke-opacity:1"
       d="m 153.39941,339.89675 -7.23237,6.06885 -9.44219,2.5423 9.20834,3.38586 7.58203,5.30731 z"
       id="path4705"
       inkscape:connector-curvature="0"
       sodipodi:nodetypes="cccccc"
       inkscape:export-xdpi="1499.9648"
       inkscape:export-ydpi="1499.9648" />
    <path
       style="fill:#808080;fill-opacity:1;fill-rule:evenodd;stroke:none;stroke-width:1px;stroke-linecap:butt;stroke-linejoin:miter;stroke-opacity:1"
       d="m 153.63089,364.33604 c -3.32063,-6.08235 -5.89976,-10.25555 -7.87403,-20.09271 -0.65084,-8.68894 0.72158,-11.48402 7.75875,-13.28579 z"
       id="path4703"
       inkscape:connector-curvature="0"
       sodipodi:nodetypes="cccc"
       inkscape:export-xdpi="1499.9648"
       inkscape:export-ydpi="1499.9648" />
    <path
       sodipodi:nodetypes="cccccc"
       inkscape:connector-curvature="0"
       id="path4707"
       d="m 153.60352,339.89675 7.23236,6.06885 9.44219,2.5423 -9.20834,3.38586 -7.58202,5.30731 z"
       style="fill:#666666;fill-opacity:1;fill-rule:evenodd;stroke:none;stroke-width:1px;stroke-linecap:butt;stroke-linejoin:miter;stroke-opacity:1"
       inkscape:export-xdpi="1499.9648"
       inkscape:export-ydpi="1499.9648" />
    <path
       sodipodi:nodetypes="cccc"
       inkscape:connector-curvature="0"
       id="path4709"
       d="m 153.37203,364.33604 c 3.32063,-6.08235 5.89976,-10.25555 7.87403,-20.09271 0.65085,-8.68894 -0.72158,-11.48402 -7.75874,-13.28579 z"
       style="fill:#4d4d4d;fill-opacity:1;fill-rule:evenodd;stroke:none;stroke-width:1px;stroke-linecap:butt;stroke-linejoin:miter;stroke-opacity:1"
       inkscape:export-xdpi="1499.9648"
       inkscape:export-ydpi="1499.9648" />
    <text
       xml:space="preserve"
       style="font-style:normal;font-weight:normal;font-size:40px;line-height:125%;font-family:sans-serif;letter-spacing:0px;word-spacing:0px;fill:#000000;fill-opacity:1;stroke:none;stroke-width:1px;stroke-linecap:butt;stroke-linejoin:miter;stroke-opacity:1"
       x="402.81244"
       y="526.72839"
       id="text4169"
       sodipodi:linespacing="125%"
       inkscape:export-xdpi="1499.9648"
       inkscape:export-ydpi="1499.9648"><tspan
         sodipodi:role="line"
         id="tspan4171"
         x="402.81244"
         y="526.72839"
         style="font-style:normal;font-variant:normal;font-weight:normal;font-stretch:normal;font-size:250px;font-family:'Cronus Round';-inkscape-font-specification:'Cronus Round'">FlossPa</tspan></text>
  </g>
</svg>
